<mxfile host="app.diagrams.net" modified="2024-01-16T23:00:47.395Z" agent="Mozilla/5.0 (X11; Linux x86_64; rv:121.0) Gecko/20100101 Firefox/121.0" etag="Ip1WuJ3mVG8ibYUXJuQK" version="22.1.18" type="github">
  <diagram name="Page-1" id="tZtbLo5tzvzhx0-98deW">
    <mxGraphModel dx="860" dy="465" grid="1" gridSize="10" guides="1" tooltips="1" connect="1" arrows="1" fold="1" page="1" pageScale="1" pageWidth="850" pageHeight="1100" math="0" shadow="0">
      <root>
        <mxCell id="0" />
        <mxCell id="1" parent="0" />
        <mxCell id="ljXd4iEbn0Exki69qa5f-15" value="Netlify" style="shape=mxgraph.ibm.box;prType=vpc;fontStyle=0;verticalAlign=top;align=left;spacingLeft=32;spacingTop=4;fillColor=none;rounded=0;whiteSpace=wrap;html=1;strokeColor=#4376BB;strokeWidth=2;dashed=0;container=1;spacing=-4;collapsible=0;expand=0;recursiveResize=0;" parent="1" vertex="1">
          <mxGeometry x="310" y="200" width="380" height="280" as="geometry" />
        </mxCell>
        <mxCell id="ljXd4iEbn0Exki69qa5f-32" style="edgeStyle=orthogonalEdgeStyle;rounded=0;orthogonalLoop=1;jettySize=auto;html=1;exitX=1;exitY=0.5;exitDx=0;exitDy=0;exitPerimeter=0;" parent="ljXd4iEbn0Exki69qa5f-15" source="ljXd4iEbn0Exki69qa5f-8" target="ljXd4iEbn0Exki69qa5f-30" edge="1">
          <mxGeometry relative="1" as="geometry" />
        </mxCell>
        <mxCell id="80AS8j_c43-dy3-31Z2r-2" style="edgeStyle=orthogonalEdgeStyle;rounded=0;orthogonalLoop=1;jettySize=auto;html=1;exitX=1;exitY=0.5;exitDx=0;exitDy=0;exitPerimeter=0;" edge="1" parent="ljXd4iEbn0Exki69qa5f-15" source="ljXd4iEbn0Exki69qa5f-8" target="80AS8j_c43-dy3-31Z2r-1">
          <mxGeometry relative="1" as="geometry" />
        </mxCell>
        <mxCell id="ljXd4iEbn0Exki69qa5f-8" value="&lt;div&gt;MFR-BFF&lt;/div&gt;" style="outlineConnect=0;dashed=0;verticalLabelPosition=bottom;verticalAlign=top;align=center;html=1;shape=mxgraph.aws3.lambda_function;fillColor=#F58534;gradientColor=none;" parent="ljXd4iEbn0Exki69qa5f-15" vertex="1">
          <mxGeometry x="150" y="50" width="60" height="60" as="geometry" />
        </mxCell>
        <mxCell id="ljXd4iEbn0Exki69qa5f-2" value="&lt;div&gt;MongoAPI&lt;/div&gt;" style="outlineConnect=0;dashed=0;verticalLabelPosition=bottom;verticalAlign=top;align=center;html=1;shape=mxgraph.aws3.lambda_function;fillColor=#F58534;gradientColor=none;" parent="ljXd4iEbn0Exki69qa5f-15" vertex="1">
          <mxGeometry x="40" y="160" width="60" height="60" as="geometry" />
        </mxCell>
        <mxCell id="ljXd4iEbn0Exki69qa5f-18" style="edgeStyle=orthogonalEdgeStyle;rounded=0;orthogonalLoop=1;jettySize=auto;html=1;exitX=0;exitY=0.5;exitDx=0;exitDy=0;exitPerimeter=0;" parent="ljXd4iEbn0Exki69qa5f-15" source="ljXd4iEbn0Exki69qa5f-8" target="ljXd4iEbn0Exki69qa5f-2" edge="1">
          <mxGeometry relative="1" as="geometry" />
        </mxCell>
        <mxCell id="ljXd4iEbn0Exki69qa5f-30" value="CodeAuth" style="outlineConnect=0;dashed=0;verticalLabelPosition=bottom;verticalAlign=top;align=center;html=1;shape=mxgraph.aws3.lambda_function;fillColor=#F58534;gradientColor=none;" parent="ljXd4iEbn0Exki69qa5f-15" vertex="1">
          <mxGeometry x="280" y="50" width="60" height="60" as="geometry" />
        </mxCell>
        <mxCell id="80AS8j_c43-dy3-31Z2r-1" value="&lt;div&gt;EmailProxy&lt;/div&gt;" style="outlineConnect=0;dashed=0;verticalLabelPosition=bottom;verticalAlign=top;align=center;html=1;shape=mxgraph.aws3.lambda_function;fillColor=#F58534;gradientColor=none;" vertex="1" parent="ljXd4iEbn0Exki69qa5f-15">
          <mxGeometry x="229" y="160" width="60" height="60" as="geometry" />
        </mxCell>
        <mxCell id="80AS8j_c43-dy3-31Z2r-4" style="edgeStyle=orthogonalEdgeStyle;rounded=0;orthogonalLoop=1;jettySize=auto;html=1;exitX=0;exitY=0.5;exitDx=0;exitDy=0;exitPerimeter=0;entryX=1;entryY=0.5;entryDx=0;entryDy=0;entryPerimeter=0;" edge="1" parent="ljXd4iEbn0Exki69qa5f-15" source="80AS8j_c43-dy3-31Z2r-1" target="ljXd4iEbn0Exki69qa5f-2">
          <mxGeometry relative="1" as="geometry" />
        </mxCell>
        <mxCell id="ljXd4iEbn0Exki69qa5f-16" value="MongoDB Atlas" style="shape=mxgraph.ibm.box;prType=vpc;fontStyle=0;verticalAlign=top;align=left;spacingLeft=32;spacingTop=4;fillColor=none;rounded=0;whiteSpace=wrap;html=1;strokeColor=#4376BB;strokeWidth=2;dashed=0;container=1;spacing=-4;collapsible=0;expand=0;recursiveResize=0;" parent="1" vertex="1">
          <mxGeometry x="244" y="508" width="210" height="190" as="geometry" />
        </mxCell>
        <mxCell id="ljXd4iEbn0Exki69qa5f-1" value="MongoDB" style="strokeWidth=2;html=1;shape=mxgraph.flowchart.database;whiteSpace=wrap;" parent="ljXd4iEbn0Exki69qa5f-16" vertex="1">
          <mxGeometry x="100" y="55" width="70" height="80" as="geometry" />
        </mxCell>
        <mxCell id="ljXd4iEbn0Exki69qa5f-3" value="" style="endArrow=classic;html=1;rounded=0;exitX=0.5;exitY=1;exitDx=0;exitDy=0;exitPerimeter=0;entryX=0.5;entryY=0;entryDx=0;entryDy=0;entryPerimeter=0;" parent="1" source="ljXd4iEbn0Exki69qa5f-2" target="ljXd4iEbn0Exki69qa5f-1" edge="1">
          <mxGeometry width="50" height="50" relative="1" as="geometry">
            <mxPoint x="400" y="340" as="sourcePoint" />
            <mxPoint x="450" y="290" as="targetPoint" />
          </mxGeometry>
        </mxCell>
        <mxCell id="ljXd4iEbn0Exki69qa5f-12" value="Client Browser" style="image;aspect=fixed;html=1;points=[];align=center;fontSize=12;image=img/lib/azure2/general/Browser.svg;" parent="1" vertex="1">
          <mxGeometry x="530" y="30" width="90" height="72" as="geometry" />
        </mxCell>
        <mxCell id="ljXd4iEbn0Exki69qa5f-17" style="edgeStyle=orthogonalEdgeStyle;rounded=0;orthogonalLoop=1;jettySize=auto;html=1;entryX=0.5;entryY=0;entryDx=0;entryDy=0;entryPerimeter=0;" parent="1" source="ljXd4iEbn0Exki69qa5f-12" target="ljXd4iEbn0Exki69qa5f-8" edge="1">
          <mxGeometry relative="1" as="geometry" />
        </mxCell>
        <mxCell id="ljXd4iEbn0Exki69qa5f-21" value="Serverless Function" style="outlineConnect=0;dashed=0;verticalLabelPosition=bottom;verticalAlign=top;align=center;html=1;shape=mxgraph.aws3.lambda_function;fillColor=#F58534;gradientColor=none;" parent="1" vertex="1">
          <mxGeometry x="90" y="250" width="60" height="60" as="geometry" />
        </mxCell>
        <mxCell id="ljXd4iEbn0Exki69qa5f-22" value="&lt;div&gt;Background Function&lt;/div&gt;&lt;div&gt;&lt;br&gt;&lt;/div&gt;" style="outlineConnect=0;dashed=0;verticalLabelPosition=bottom;verticalAlign=top;align=center;html=1;shape=mxgraph.aws3.lambda_function;fillColor=#5294CF;gradientColor=none;" parent="1" vertex="1">
          <mxGeometry x="90" y="360" width="60" height="63" as="geometry" />
        </mxCell>
        <mxCell id="ljXd4iEbn0Exki69qa5f-26" value="&lt;div&gt;CyptoWallet&lt;/div&gt;" style="html=1;verticalLabelPosition=bottom;align=center;labelBackgroundColor=#ffffff;verticalAlign=top;strokeWidth=2;strokeColor=#0080F0;shadow=0;dashed=0;shape=mxgraph.ios7.icons.cloud;" parent="1" vertex="1">
          <mxGeometry x="840" y="231" width="100" height="65" as="geometry" />
        </mxCell>
        <mxCell id="ljXd4iEbn0Exki69qa5f-29" value="" style="endArrow=classic;startArrow=classic;html=1;rounded=0;entryX=0.54;entryY=0.031;entryDx=0;entryDy=0;entryPerimeter=0;exitX=0.855;exitY=0.145;exitDx=0;exitDy=0;exitPerimeter=0;" parent="1" source="ljXd4iEbn0Exki69qa5f-30" target="ljXd4iEbn0Exki69qa5f-26" edge="1">
          <mxGeometry width="50" height="50" relative="1" as="geometry">
            <mxPoint x="530" y="190" as="sourcePoint" />
            <mxPoint x="580" y="140" as="targetPoint" />
            <Array as="points">
              <mxPoint x="780" y="240" />
            </Array>
          </mxGeometry>
        </mxCell>
        <mxCell id="ljXd4iEbn0Exki69qa5f-31" value="&lt;div&gt;Authenticate&lt;/div&gt;" style="edgeLabel;html=1;align=center;verticalAlign=middle;resizable=0;points=[];" parent="ljXd4iEbn0Exki69qa5f-29" vertex="1" connectable="0">
          <mxGeometry x="-0.1231" y="1" relative="1" as="geometry">
            <mxPoint x="2" y="-1" as="offset" />
          </mxGeometry>
        </mxCell>
        <mxCell id="ljXd4iEbn0Exki69qa5f-33" style="edgeStyle=orthogonalEdgeStyle;rounded=0;orthogonalLoop=1;jettySize=auto;html=1;entryX=0;entryY=0.754;entryDx=0;entryDy=0;entryPerimeter=0;" parent="1" source="ljXd4iEbn0Exki69qa5f-30" target="ljXd4iEbn0Exki69qa5f-26" edge="1">
          <mxGeometry relative="1" as="geometry" />
        </mxCell>
        <mxCell id="ljXd4iEbn0Exki69qa5f-36" value="&lt;div&gt;GetToken&lt;/div&gt;" style="edgeLabel;html=1;align=center;verticalAlign=middle;resizable=0;points=[];" parent="ljXd4iEbn0Exki69qa5f-33" vertex="1" connectable="0">
          <mxGeometry x="-0.7175" y="-3" relative="1" as="geometry">
            <mxPoint x="63" as="offset" />
          </mxGeometry>
        </mxCell>
        <mxCell id="ta-JtjL6IQZkghGOp64r-1" value="&lt;div&gt;ETH Node&lt;/div&gt;" style="image;points=[];aspect=fixed;html=1;align=center;shadow=0;dashed=0;image=img/lib/allied_telesis/computer_and_terminals/Server_Desktop.svg;" parent="1" vertex="1">
          <mxGeometry x="770" y="496" width="42.599999999999994" height="54" as="geometry" />
        </mxCell>
        <mxCell id="ta-JtjL6IQZkghGOp64r-7" value="&lt;div&gt;Postmark&lt;/div&gt;" style="sketch=0;points=[[0,0,0],[0.25,0,0],[0.5,0,0],[0.75,0,0],[1,0,0],[0,1,0],[0.25,1,0],[0.5,1,0],[0.75,1,0],[1,1,0],[0,0.25,0],[0,0.5,0],[0,0.75,0],[1,0.25,0],[1,0.5,0],[1,0.75,0]];outlineConnect=0;fontColor=#232F3E;fillColor=#DD344C;strokeColor=#ffffff;dashed=0;verticalLabelPosition=bottom;verticalAlign=top;align=center;html=1;fontSize=12;fontStyle=0;aspect=fixed;shape=mxgraph.aws4.resourceIcon;resIcon=mxgraph.aws4.simple_email_service;" parent="1" vertex="1">
          <mxGeometry x="530" y="564" width="78" height="78" as="geometry" />
        </mxCell>
        <mxCell id="ta-JtjL6IQZkghGOp64r-8" style="edgeStyle=orthogonalEdgeStyle;rounded=0;orthogonalLoop=1;jettySize=auto;html=1;exitX=0.5;exitY=1;exitDx=0;exitDy=0;exitPerimeter=0;" parent="1" source="80AS8j_c43-dy3-31Z2r-1" target="ta-JtjL6IQZkghGOp64r-7" edge="1">
          <mxGeometry relative="1" as="geometry" />
        </mxCell>
      </root>
    </mxGraphModel>
  </diagram>
</mxfile>
